<svg width="23" height="29" viewBox="0 0 23 29" fill="none" xmlns="http://www.w3.org/2000/svg">
<path fill-rule="evenodd" clip-rule="evenodd" d="M19.2026 14.5225C19.7972 13.8496 19.7404 12.8236 19.075 12.2205V12.2205C18.2175 11.4434 16.8467 11.7743 16.4383 12.857V12.857C15.7949 14.5622 17.9956 15.8882 19.2026 14.5225V14.5225ZM13.1433 8.41102C13.1433 10.0057 15.3557 10.4094 15.9189 8.91746L16.0092 8.67827C16.0106 8.67457 16.0114 8.67058 16.0132 8.66704V8.66704L16.1904 8.19758C16.4956 7.3889 16.0917 6.48537 15.2856 6.17348V6.17348C14.254 5.77435 13.1433 6.53556 13.1433 7.64168V8.41102ZM11.0758 21.7516C11.2761 21.2209 10.8839 20.6537 10.3166 20.6537V20.6537C9.41805 20.6537 9.18575 21.8975 10.0237 22.2219V22.2219C10.4442 22.3846 10.9166 22.1734 11.0758 21.7516V21.7516ZM9.69759 25.2776C10.0705 24.8555 9.90869 24.191 9.38343 23.9877V23.9877C8.54712 23.664 7.88384 24.7392 8.5484 25.3414V25.3414C8.88235 25.644 9.39919 25.6153 9.69759 25.2776V25.2776ZM1.87756 14.0821C1.87756 16.6745 3.97914 18.7761 6.57158 18.7761V18.7761C9.16401 18.7761 11.2656 16.6745 11.2656 14.0821V6.57163C11.2656 3.97919 9.16401 1.87761 6.57158 1.87761V1.87761C3.97914 1.87761 1.87756 3.97919 1.87756 6.57163V14.0821ZM22.2966 13.8568L9.93255 27.8468C9.76638 28.0355 9.53168 28.1491 9.28102 28.1622C9.26412 28.1632 9.24628 28.1641 9.22845 28.1641C8.99656 28.1641 8.77125 28.0778 8.59851 27.921L0.308867 20.4087C0.305111 20.4058 0.304173 20.4012 0.299479 20.3974C0.294785 20.3927 0.288213 20.3899 0.284458 20.3852C0.229068 20.3307 0.193394 20.2631 0.152086 20.1974C0.131433 20.1636 0.101391 20.1345 0.0854312 20.0998V20.0998C0.0825115 20.0925 0.0780735 20.0859 0.0753 20.0785C0.0589289 20.0351 0.0572515 19.9861 0.0460014 19.9411C0.0441238 19.9355 0.043185 19.9289 0.0413074 19.9224C0.0281641 19.8642 0.00469402 19.8097 0.00281641 19.7506C0.00187761 19.7431 0.00281641 19.7355 0.00281641 19.728C0.00281641 19.7233 0 19.7196 0 19.7149V0.938804C0 0.419646 0.420584 0 0.938804 0H12.2045C12.7236 0 13.1433 0.419646 13.1433 0.938804V0.938804C13.1433 2.38049 14.0296 3.67384 15.3742 4.19408L18.287 5.32114C18.7686 5.50703 19.0089 6.04684 18.8268 6.52844V6.52844C18.3294 7.84668 18.6885 9.33498 19.7324 10.2813L22.2234 12.5396C22.6036 12.8851 22.6364 13.4718 22.2966 13.8568ZM5.63284 8.91864C5.63284 9.17775 5.84313 9.38804 6.10224 9.38804H7.04104C8.33565 9.38804 9.38805 10.4404 9.38805 11.735C9.38805 12.5202 9.00109 13.2158 8.40784 13.6417C7.94147 13.9766 7.51044 14.4467 7.51044 15.0209V15.0209C7.51044 15.54 7.0908 15.9597 6.57164 15.9597C6.05342 15.9597 5.63284 15.54 5.63284 15.0209V15.0209C5.63284 14.5024 5.21252 14.0821 4.69403 14.0821V14.0821C4.17581 14.0821 3.75523 13.6624 3.75523 13.1433C3.75523 12.6241 4.17581 12.2045 4.69403 12.2045H7.04198C7.30015 12.2045 7.51044 11.9942 7.51044 11.735C7.51044 11.4769 7.30015 11.2656 7.04104 11.2656H6.10224C4.80857 11.2656 3.75523 10.2132 3.75523 8.91864C3.75523 8.13365 4.1425 7.43818 4.73553 7.01216C5.20187 6.67717 5.63284 6.20701 5.63284 5.63282V5.63282C5.63284 5.11366 6.05342 4.69402 6.57164 4.69402C7.0908 4.69402 7.51044 5.11366 7.51044 5.63282V5.63282C7.51044 6.15131 7.93076 6.57163 8.44925 6.57163V6.57163C8.96841 6.57163 9.38805 6.99127 9.38805 7.51043C9.38805 8.02959 8.96841 8.44924 8.44925 8.44924H6.10224C5.84313 8.44924 5.63284 8.66047 5.63284 8.91864Z" fill="#C2C2C2"/>
</svg>
