<svg width="16" height="17" viewBox="0 0 16 17" fill="none" xmlns="http://www.w3.org/2000/svg">
<path d="M14.5352 6.01983C14.2972 5.20652 14.5352 4.13443 14.0931 3.469C13.651 2.80356 12.6307 2.72963 11.9846 2.21207C11.3724 1.73147 10.9983 0.696354 10.2501 0.437573C9.53596 0.178793 8.65174 0.770291 7.86954 0.770291C7.08734 0.770291 6.20312 0.178793 5.48894 0.437573C4.74075 0.696354 4.36665 1.73147 3.7545 2.21207C3.14234 2.69266 2.08808 2.80356 1.64596 3.469C1.20385 4.13443 1.44191 5.20652 1.20385 6.01983C0.965792 6.79617 0.183594 7.49857 0.183594 8.38582C0.183594 9.2361 0.965792 9.9385 1.20385 10.7148C1.44191 11.5282 1.20385 12.6002 1.64596 13.2657C2.08808 13.9311 3.10833 14.005 3.7545 14.5226C4.36665 15.0032 4.74075 16.0383 5.48894 16.2971C6.20312 16.5559 7.08734 15.9644 7.86954 15.9644C8.65174 15.9644 9.53596 16.5559 10.2501 16.2971C10.9983 16.0383 11.3724 15.0032 11.9846 14.5226C12.5967 14.042 13.617 13.9311 14.0931 13.2657C14.5352 12.6002 14.2972 11.5282 14.5352 10.7148C14.7733 9.9385 15.5555 9.2361 15.5555 8.34885C15.5555 7.49857 14.7733 6.79617 14.5352 6.01983ZM6.30514 11.6391L3.58446 7.60948L4.12859 7.16586L6.40717 10.53L11.6785 5.39137L12.1206 5.94589L6.30514 11.6391Z" fill="#788292"/>
</svg>
