<svg width="1990" height="522" viewBox="0 0 1990 522" fill="none" xmlns="http://www.w3.org/2000/svg">
<path d="M415.951 488.085L630.865 268.672L753.681 390.588L986.414 155.095L1104.97 270.892L1295.94 69.0579L1263.91 36.1189L1402.26 0L1363.68 136.796L1328.46 104.277L1102.93 333.23L985.754 220.613L750.081 455.566L629.965 338.21L447.57 521.024L415.951 488.085Z" fill="url(#paint0_linear_985_1810)"/>
<path d="M938.828 385.053C923.708 386.133 909.009 388.113 894.309 388.053C863.59 387.993 837.971 370.654 828.971 345.214C824.591 332.855 825.551 320.195 827.351 307.655C834.431 256.777 841.571 205.959 848.77 155.14C849.13 152.8 849.67 150.46 850.21 143.5H911.289C907.389 175.54 903.549 203.199 899.649 230.798C896.169 255.397 892.389 279.936 889.089 304.536C887.889 313.535 892.089 320.555 899.949 324.695C915.008 332.615 930.488 331.235 945.787 325.295C947.347 324.695 948.907 322.295 949.147 320.555C954.607 282.996 959.827 245.377 965.107 207.759C967.927 187.719 970.807 167.68 973.687 149.5H1037.64C1035.72 161.62 1033.92 175.42 1032 189.279C1024.93 239.678 1018.15 290.076 1010.65 340.414C1007.29 362.794 1004.59 385.593 997.986 407.072C984.906 449.551 952.927 472.83 908.649 475.71C885.069 477.21 862.27 474.51 841.211 462.811C829.931 456.571 820.271 448.531 812.352 437.371C824.531 426.632 836.651 415.892 849.01 404.972C866.23 419.192 885.909 422.552 907.089 418.532C924.848 415.172 937.388 401.613 939.008 385.113L938.828 385.053Z" fill="black"/>
<path d="M180.575 382.476C164.075 382.476 148.296 382.596 132.456 382.296C130.656 382.296 128.196 379.956 127.356 378.157C125.436 374.077 124.356 369.637 122.677 364.537C120.877 366.097 119.317 367.357 117.877 368.737C83.6177 402.036 22.8396 386.676 5.98012 348.457C-0.679679 333.398 -0.97967 317.858 1.24026 302.079C4.78015 276.76 8.08005 251.44 12.2199 226.241C19.5397 182.203 46.6589 154.723 90.6375 145.904C131.316 137.744 169.535 145.844 206.254 163.663C209.914 165.463 210.094 167.623 209.614 171.043C205.474 201.342 201.454 231.641 197.314 261.94C192.214 299.559 187.055 337.178 181.955 374.797C181.655 377.137 181.115 379.477 180.575 382.536V382.476ZM93.3974 330.878C103.297 328.238 111.757 325.958 120.217 323.618C124.656 322.418 126.576 319.418 127.176 314.859C131.976 279.64 136.956 244.421 141.996 209.202C142.596 204.822 141.216 201.942 137.016 201.402C127.836 200.262 118.477 198.162 109.477 199.002C88.8976 200.922 77.6779 212.262 74.618 232.541C71.0781 256.36 67.8382 280.24 64.6583 304.179C63.6983 311.619 66.0983 318.518 72.5181 322.238C79.1179 326.078 86.7376 328.178 93.4574 330.818L93.3974 330.878Z" fill="black"/>
<path d="M646.764 382.473C630.325 382.473 614.725 382.653 599.186 382.293C597.206 382.293 594.446 379.893 593.486 377.913C591.506 373.893 590.486 369.393 588.926 364.654C587.606 365.673 586.406 366.333 585.506 367.293C555.267 398.252 506.369 389.013 483.869 365.313C470.37 351.094 464.37 333.694 466.53 314.675C470.07 282.636 473.91 250.537 479.91 218.918C487.889 177.279 516.268 154.66 556.407 145.96C597.206 137.141 635.785 145.48 672.564 163.84C674.304 164.74 675.984 168.28 675.744 170.319C672.384 197.319 668.724 224.318 665.064 251.317C659.484 292.236 653.904 333.214 648.324 374.133C647.964 376.713 647.424 379.293 646.884 382.413L646.764 382.473ZM560.307 330.935L560.847 329.555C564.387 329.075 567.987 328.715 571.527 328.175C588.506 325.715 591.806 322.835 594.326 306.215C599.126 274.116 603.506 241.957 608.126 209.858C608.786 205.418 607.946 202.059 603.086 201.459C594.146 200.319 585.086 198.339 576.207 199.059C555.807 200.619 543.988 212.078 540.928 232.118C537.268 256.177 533.968 280.296 530.788 304.415C529.708 312.455 532.828 319.475 539.848 323.315C546.148 326.735 553.467 328.475 560.307 330.935Z" fill="black"/>
<path d="M1544.57 382.476C1528.19 382.476 1512.11 382.596 1496.09 382.296C1494.47 382.296 1492.19 380.136 1491.47 378.456C1489.55 374.136 1488.35 369.516 1487.39 366.636C1476.41 372.576 1466.03 380.556 1454.33 384.096C1415.99 395.735 1357.74 372.036 1364.7 310.238C1368 280.839 1372.32 251.5 1376.76 222.221C1382.82 182.802 1412.45 154.243 1455.05 145.783C1495.49 137.743 1533.47 145.783 1569.95 163.423C1573.37 165.043 1574.21 166.962 1573.67 170.622C1568.99 204.461 1564.49 238.3 1559.93 272.139C1555.31 306.218 1550.63 340.297 1546.01 374.376C1545.65 376.956 1545.11 379.476 1544.57 382.416V382.476ZM1482.89 198.582C1481.45 198.582 1480.01 198.582 1478.57 198.582C1455.71 198.941 1441.43 211.481 1438.43 233.98C1435.43 256.18 1433.09 278.559 1429.13 300.638C1426.37 316.178 1436.87 325.658 1448.63 328.238C1461.11 330.937 1472.81 328.358 1484.33 323.798C1488.59 322.118 1490.69 319.598 1491.29 314.978C1495.67 282.579 1500.41 250.24 1504.67 217.841C1506.77 201.881 1503.65 198.821 1487.21 198.641C1485.77 198.641 1484.33 198.641 1482.89 198.641V198.582Z" fill="black"/>
<path d="M290.311 377.435H226.773C228.453 369.576 230.073 357.336 231.813 345.156C238.293 299.018 244.893 252.939 251.433 206.801C253.293 193.541 255.153 180.282 257.193 167.082C257.492 165.282 258.632 162.642 260.072 162.042C302.491 143.983 346.05 134.923 391.348 149.862C424.887 160.962 441.807 188.321 437.247 223.36C430.347 276.159 422.787 328.897 415.468 383.435H352.23C354.33 366.516 356.309 351.216 358.469 335.917C363.449 300.458 368.549 264.999 373.349 229.48C375.209 215.68 365.129 203.021 349.35 202.001C339.15 201.341 328.71 204.221 318.451 206.081C316.771 206.381 314.791 209.621 314.491 211.661C309.571 245.2 304.891 278.798 300.151 312.397C296.911 335.557 293.671 358.716 290.371 377.375L290.311 377.435Z" fill="black"/>
<path d="M1590.71 383.436C1593.89 359.077 1596.95 336.817 1600.07 314.618C1606.13 271.839 1612.19 229.001 1618.25 186.222C1618.61 183.882 1619.45 181.482 1619.27 179.142C1618.01 165.403 1625.87 160.003 1637.81 155.983C1671.71 144.583 1706.03 138.463 1741.55 145.903C1766.93 151.243 1787.74 163.243 1797.64 188.862C1803.46 203.861 1802.26 219.401 1800.04 234.88C1793.56 281.019 1787.02 327.098 1780.48 373.236C1780.06 376.056 1779.52 378.876 1778.92 377.496H1716.05C1718.21 366.336 1720.31 350.797 1722.47 335.257C1727.39 300.038 1732.43 264.76 1737.23 229.541C1739.09 215.741 1728.95 203.081 1713.17 202.121C1702.97 201.461 1692.53 204.341 1682.27 206.201C1680.65 206.501 1678.61 209.741 1678.31 211.841C1673.39 245.38 1668.71 278.979 1663.97 312.578C1660.73 335.737 1657.43 358.897 1654.19 383.556H1590.65L1590.71 383.436Z" fill="black"/>
<path d="M1034.67 343.343C1046.79 329.543 1058.61 316.103 1070.73 302.364C1083.21 314.364 1097.07 323.183 1113.69 326.483C1119.45 327.623 1125.63 327.803 1131.51 327.143C1140.57 326.123 1145.49 320.123 1146.93 309.984C1148.13 301.704 1145.13 296.004 1136.61 292.344C1131.15 290.004 1125.27 288.744 1119.57 287.124C1098.69 281.245 1080.33 271.525 1069.35 251.785C1050.93 218.786 1063.05 172.528 1097.07 153.508C1135.05 132.269 1167.08 129.854 1205 151.334C1208.25 153.172 1212.57 158.368 1212.57 158.368L1173.33 200.604C1173.33 200.604 1163.16 192.667 1145.61 193.647C1134.87 194.247 1127.79 199.347 1125.75 208.107C1123.29 218.486 1127.07 226.586 1137.63 231.386C1144.11 234.326 1151.07 236.306 1157.91 238.466C1179.69 245.366 1198.35 256.285 1207.47 278.545C1220.37 310.044 1203.45 354.742 1171.59 370.882C1139.97 386.901 1106.73 387.921 1073.37 376.342C1056.69 370.582 1044.51 358.882 1034.79 343.403L1034.67 343.343Z" fill="black"/>
<path d="M1812 348.987C1824.12 335.187 1835.94 321.748 1848.06 308.008C1860.54 320.008 1874.4 328.828 1891.02 332.127C1896.78 333.267 1902.96 333.447 1908.84 332.787C1917.9 331.767 1922.82 325.768 1924.26 315.628C1925.46 307.348 1922.46 301.648 1913.94 297.989C1908.48 295.649 1902.6 294.389 1896.9 292.769C1876.02 286.889 1857.66 277.169 1846.68 257.43C1828.26 224.431 1840.38 178.172 1874.4 159.153C1912.38 137.913 1944.41 135.499 1982.33 156.978C1985.57 158.817 1989.9 164.013 1989.9 164.013L1950.65 206.248C1950.65 206.248 1940.48 198.311 1922.94 199.292C1912.2 199.892 1905.12 204.991 1903.08 213.751C1900.62 224.131 1904.4 232.231 1914.96 237.03C1921.44 239.97 1928.4 241.95 1935.24 244.11C1957.02 251.01 1975.67 261.93 1984.79 284.189C1997.69 315.688 1980.77 360.387 1948.92 376.526C1917.3 392.546 1884.06 393.566 1850.7 381.986C1834.02 376.226 1821.84 364.526 1812.12 349.047L1812 348.987Z" fill="black"/>
<path d="M799.887 330.892C797.427 347.751 795.147 364.311 792.567 380.75C792.327 382.19 790.707 384.35 789.447 384.59C764.128 389.39 730.349 384.17 712.95 357.291C701.73 339.952 699.81 320.452 702.45 300.713C709.11 251.274 716.369 201.896 723.449 152.517C727.889 121.618 732.329 90.7192 736.829 59.4602H800.247C798.327 73.4998 796.527 87.3594 794.547 101.159C788.487 143.698 782.367 186.236 776.308 228.715C773.308 249.774 770.488 270.834 767.368 291.833C763.588 317.272 771.088 327.172 796.707 330.112C797.427 330.172 798.087 330.472 799.947 330.952L799.887 330.892Z" fill="black"/>
<path d="M1278.3 149.443H1343.1C1332.24 227.62 1321.44 305.378 1310.64 383.436H1245.84C1256.7 305.318 1267.5 227.38 1278.3 149.443Z" fill="black"/>
<path d="M1354.92 80.6397C1354.62 96.7792 1347.66 109.199 1333.14 116.579C1317.78 124.378 1302.24 124.438 1287.49 114.779C1279.51 109.559 1275.85 101.819 1275.97 92.2193C1276.27 62.7602 1306.74 41.3409 1334.58 51.1806C1348.32 56.0404 1354.86 65.5202 1354.92 80.6397Z" fill="black"/>
<path d="M415.951 488.082L630.865 268.669L753.681 390.585L750.081 455.563L629.965 338.207L447.57 521.021L415.951 488.082Z" fill="url(#paint1_linear_985_1810)"/>
<defs>
<linearGradient id="paint0_linear_985_1810" x1="1094.5" y1="91.5016" x2="439.913" y2="489.181" gradientUnits="userSpaceOnUse">
<stop stop-color="#1D123D"/>
<stop offset="1" stop-color="#FF00F5"/>
</linearGradient>
<linearGradient id="paint1_linear_985_1810" x1="644.031" y1="207.638" x2="584.816" y2="521.021" gradientUnits="userSpaceOnUse">
<stop stop-color="#1D123D"/>
<stop offset="1" stop-color="#FF00F5"/>
</linearGradient>
</defs>
</svg>
