<svg width="250" height="30" viewBox="0 0 250 30" fill="none" xmlns="http://www.w3.org/2000/svg">
<path d="M249.635 15.3817V2.83987C249.635 1.69308 248.705 0.763428 247.558 0.763428C246.412 0.763428 245.482 1.69309 245.482 2.83988V10.4497C245.482 13.6514 243.9 16.6463 241.255 18.4508L234.846 22.8236C231.705 24.9673 227.989 26.1141 224.186 26.1141H24.9074C20.8675 26.1141 16.9338 24.8206 13.6823 22.4231L8.38206 18.515C5.86769 16.661 4.38361 13.7228 4.38361 10.5988V2.95523C4.38361 1.74473 3.4023 0.763428 2.1918 0.763428C0.981304 0.763428 0 1.74473 0 2.95523V15.3817C0 23.4551 6.54482 29.9999 14.6183 29.9999H235.017C243.09 29.9999 249.635 23.4551 249.635 15.3817Z" fill="#7D29A0"/>
</svg>
