<svg width="1803" height="705" viewBox="0 0 1803 705" fill="none" xmlns="http://www.w3.org/2000/svg">
<mask id="mask0_576_4986" style="mask-type:alpha" maskUnits="userSpaceOnUse" x="-7" y="0" width="1881" height="697">
<g opacity="0.1">
<path opacity="0.8" d="M1821.83 1.58755C1817.95 0.199331 1811.65 0.199331 1807.76 1.58755C1804.84 2.62872 1804.12 4.15191 1805.59 5.42445L1587.62 82.8178V180.514L1534.52 199.371V305.627L1352.63 370.218L1324.29 360.154L1464.55 310.351V252.104L1463.98 251.911L1304.51 195.283V175.52L1394.7 143.495C1398.59 144.497 1404.04 144.382 1407.55 143.148C1411.44 141.759 1411.44 139.523 1407.55 138.154C1403.67 136.766 1397.36 136.766 1393.48 138.154C1389.97 139.407 1389.65 141.335 1392.47 142.723L1302.28 174.749V196.093L1302.85 196.286L1462.32 252.914V309.58L1356.36 347.216V322.942L1404.95 305.685C1408.84 306.688 1414.29 306.572 1417.8 305.338C1421.69 303.95 1421.69 301.713 1417.8 300.345C1413.92 298.956 1407.62 298.956 1403.73 300.345C1400.22 301.598 1399.9 303.526 1402.73 304.914L1354.13 322.17V348.026L1322.06 359.402L1284.16 345.944V303.68L1355.64 278.287V249.077L1355.07 248.884L1204.57 195.437C1207.39 194.049 1207.07 192.121 1203.56 190.868C1199.68 189.48 1193.38 189.48 1189.49 190.868C1185.6 192.256 1185.6 194.493 1189.49 195.862C1193 197.115 1198.45 197.211 1202.34 196.209L1353.38 249.848V277.477L1284.13 302.08V272.946L1283.57 272.754L1191.49 240.053C1194.32 238.665 1194 236.737 1190.49 235.484C1186.6 234.095 1180.3 234.095 1176.42 235.484C1172.53 236.872 1172.53 239.109 1176.42 240.477C1179.93 241.731 1185.38 241.827 1189.27 240.825L1281.91 273.718V345.115L1255.29 335.667L1211.43 351.246L1171.71 337.132V302.851L1171.15 302.658L1066.13 265.369V233.054C1068.29 232.977 1070.39 232.649 1072.05 232.052C1075.94 230.663 1075.94 228.427 1072.05 227.058C1068.17 225.67 1061.86 225.67 1057.98 227.058C1054.09 228.446 1054.09 230.683 1057.98 232.052C1059.64 232.649 1061.74 232.958 1063.9 233.054V266.16L1064.47 266.352L1169.49 303.642V336.342L998.571 275.646V211.305L1091.27 178.393H1176.35L1176.6 178.297L1322.6 126.47C1326.48 127.472 1331.94 127.357 1335.45 126.123C1339.34 124.734 1339.34 122.498 1335.45 121.129C1331.56 119.741 1325.26 119.741 1321.37 121.129C1317.86 122.382 1317.55 124.31 1320.37 125.698L1175.76 177.043H1095.13L1363.32 81.8152C1367.21 82.8178 1372.66 82.7021 1376.17 81.4682C1380.06 80.0799 1380.06 77.8434 1376.17 76.4744C1372.29 75.0862 1365.98 75.0862 1362.1 76.4744C1358.59 77.7277 1358.27 79.6558 1361.09 81.044L996.345 210.554V276.475L996.909 276.668L1209.24 352.056L1166.51 367.23L803.986 238.511V161.696L803.422 161.503L680.125 117.735C682.946 116.347 682.633 114.419 679.122 113.166C675.234 111.778 668.933 111.778 665.046 113.166C661.159 114.554 661.159 116.791 665.046 118.16C668.557 119.413 674.012 119.509 677.899 118.507L801.729 162.486V239.301L802.293 239.494L1164.25 368.02L1123.56 382.462L765.05 255.15H551.248L417.637 207.7V134.78C419.048 134.606 420.396 134.336 421.493 133.951C425.381 132.562 425.381 130.326 421.493 128.957C417.606 127.569 411.305 127.569 407.418 128.957C403.53 130.345 403.53 132.582 407.418 133.951C409.612 134.722 412.559 135.05 415.412 134.953V208.49L415.976 208.683L550.684 256.519H764.486L1067.13 363.991H1006.25L902.955 327.318H823.391L823.14 327.415L712.791 366.594C708.904 365.591 703.449 365.707 699.938 366.941C696.05 368.329 696.05 370.565 699.938 371.934C703.825 373.323 710.126 373.323 714.013 371.934C717.525 370.681 717.838 368.753 715.017 367.365L823.987 328.668H902.36L1005.66 365.34H1070.99L1121.37 383.233L1012.77 421.795L981.893 410.824V382.038L903.457 354.177C906.279 352.788 905.965 350.86 902.454 349.607C898.567 348.219 892.265 348.219 888.378 349.607C884.491 350.995 884.491 353.232 888.378 354.601C891.889 355.854 897.344 355.951 901.231 354.948L979.667 382.809V410.014L895.996 380.302H856.37L856.12 380.399L808.908 397.173C805.02 396.17 799.566 396.286 796.054 397.52C792.167 398.908 792.167 401.145 796.054 402.514C799.942 403.902 806.243 403.902 810.13 402.514C813.641 401.261 813.955 399.332 811.133 397.944L856.997 381.671H895.4L1010.55 422.547L989.636 429.97L1056.38 453.666L1025.12 464.772H977.849L944.023 452.76C946.719 451.391 946.343 449.482 942.894 448.248C939.007 446.86 932.706 446.86 928.819 448.248C924.931 449.636 924.931 451.873 928.819 453.242C932.361 454.495 937.91 454.591 941.829 453.55L977.253 466.121H1021.27L941.546 494.426L754.015 427.83H619.057L618.806 427.926L542.815 454.9C538.928 453.897 533.473 454.013 529.962 455.247C526.075 456.635 526.075 458.872 529.962 460.241C533.849 461.629 540.15 461.629 544.038 460.241C547.549 458.987 547.862 457.059 545.041 455.671L619.652 429.179H753.388L898.034 480.543H836.119L775.615 459.065C778.436 457.676 778.123 455.748 774.612 454.495C770.724 453.107 764.423 453.107 760.536 454.495C756.648 455.883 756.648 458.12 760.536 459.489C764.047 460.742 769.502 460.838 773.389 459.836L835.523 481.893H901.89L939.289 495.178L844.082 528.977H539.806L303.401 445.028C306.222 443.64 305.909 441.712 302.398 440.459C298.51 439.07 292.209 439.07 288.322 440.459C284.434 441.847 284.434 444.083 288.322 445.452C291.833 446.706 297.288 446.802 301.175 445.799L539.21 530.327H840.226L802.45 543.746H577.205L576.954 543.843L465.884 583.291C461.997 582.289 456.542 582.404 453.031 583.638C449.144 585.026 449.144 587.263 453.031 588.632C456.918 590.02 463.219 590.02 467.107 588.632C470.618 587.379 470.931 585.451 468.11 584.062L577.832 545.115H803.077L803.328 545.019L1058.6 454.379L1086.94 464.444L818.563 559.749H622.285L622.035 559.846L384.972 644.026H56.494L-6.98828 621.602V623.183L55.8983 645.511H385.536L385.787 645.414L534.57 592.585V623.858L436.51 658.679C432.622 657.677 427.168 657.792 423.657 659.026C419.769 660.415 419.769 662.651 423.657 664.02C427.544 665.408 433.845 665.408 437.732 664.02C441.243 662.767 441.557 660.839 438.736 659.451L536.796 624.629V591.968H536.294L622.881 561.215H819.159L819.41 561.118L1089.17 465.331L1121.37 476.764L597.958 662.613V696.2H600.184V663.403L1123.59 477.555L1163.37 491.688L893.394 587.552V604.693L845.524 621.699V661.128L752.698 694.098C748.811 693.096 743.356 693.211 739.845 694.445C738.435 694.947 737.525 695.564 737.149 696.219H756.554C756.272 695.737 755.739 695.294 754.924 694.889L847.749 661.919V622.489L893.394 606.274V669.4L920.323 678.963L871.794 696.2H876.246L922.549 679.753L968.852 696.2H973.303L895.588 668.609V588.343L1165.57 492.478L1201.78 505.339L1010.7 573.188C1006.82 572.185 1001.36 572.301 997.85 573.535C993.962 574.923 993.962 577.16 997.85 578.529C1001.74 579.917 1008.04 579.917 1011.93 578.529C1015.44 577.276 1015.75 575.347 1012.93 573.959L1204 506.11L1238.96 518.527L1010.39 599.68H948.286C947.91 599.024 947.001 598.388 945.559 597.867C941.672 596.479 935.371 596.479 931.483 597.867C927.596 599.256 927.596 601.492 931.483 602.861C935.371 604.25 941.672 604.25 945.559 602.861C947.001 602.341 947.91 601.704 948.286 601.049H1010.98L1011.24 600.952L1241.15 519.317L1255.26 524.33L1266.11 520.474L1320.87 539.909V566.98L1275.64 583.041V582.963H1204.63L1204.38 583.06L1126.48 610.728C1122.59 609.725 1117.13 609.841 1113.62 611.075C1109.74 612.463 1109.74 614.7 1113.62 616.069C1117.51 617.457 1123.81 617.457 1127.7 616.069C1131.21 614.815 1131.52 612.887 1128.7 611.499L1205.22 584.332H1271.97L1138.95 631.551C1135.03 630.471 1129.42 630.549 1125.82 631.821C1121.93 633.209 1121.93 635.446 1125.82 636.815C1129.7 638.203 1136.01 638.203 1139.89 636.815C1143.31 635.6 1143.72 633.73 1141.12 632.342L1307.02 573.439V586.453L1208.33 621.506V646.243L1127.98 674.779C1124.09 673.776 1118.64 673.892 1115.13 675.126C1111.24 676.514 1111.24 678.751 1115.13 680.12C1119.01 681.508 1125.32 681.508 1129.2 680.12C1132.71 678.866 1133.03 676.938 1130.21 675.55L1210.55 647.014V622.277L1309.24 587.224V572.629L1323.07 567.712V539.061L1268.3 519.607L1304.29 506.823L1416.96 546.831V592.315L1340.43 619.481C1336.52 618.402 1330.9 618.479 1327.3 619.751C1323.41 621.14 1323.41 623.376 1327.3 624.745C1331.19 626.133 1337.49 626.133 1341.37 624.745C1344.79 623.53 1345.2 621.66 1342.6 620.272L1416.93 593.876V630.626L1358.21 651.488V696.104H1360.44V652.278L1416.93 632.207V696.084H1419.15V546.002L1306.48 505.994L1346.89 491.649L1494.17 543.939V668.493L1564.96 693.636V696.084H1567.18V692.845L1496.4 667.703V543.148L1349.12 490.859L1379.06 480.216L1577.81 550.784V657.04L1687.69 696.065H1692.14L1580.04 656.25V549.993L1381.28 479.425L1429.81 462.188L1760.51 579.609V632.477L1873.84 672.716V671.135L1762.74 631.686V578.818L1576.75 512.762H1723.84L1873.84 566.035V564.454L1724.43 511.393H1572.86L1432.04 461.398L1488.47 441.365L1609.51 484.342H1803.87L1873.84 509.176V507.595L1858.51 502.157H1873.84V500.788H1854.66L1804.5 482.973H1610.13L1576.27 470.942H1658.91L1659.16 470.845L1700.61 456.134H1873.28L1873.84 456.327V454.746H1704.43L1751.08 438.183C1754.97 439.186 1760.42 439.07 1763.93 437.836C1767.82 436.448 1767.82 434.212 1763.93 432.843C1760.04 431.454 1753.74 431.454 1749.86 432.843C1746.34 434.096 1746.03 436.024 1748.85 437.412L1658.25 469.592H1572.36L1490.66 440.594L1520.85 429.873L1501.41 422.971H1557.87L1631.67 449.173C1628.85 450.562 1629.16 452.49 1632.67 453.743C1636.56 455.131 1642.86 455.131 1646.75 453.743C1650.64 452.355 1650.64 450.118 1646.75 448.749C1643.24 447.496 1637.78 447.4 1633.89 448.402L1558.47 421.621H1497.56L1456.24 406.948L1481.63 397.925H1526.68L1566.31 383.85H1595.87L1662.64 407.565C1659.63 408.954 1659.88 410.94 1663.46 412.212C1667.34 413.6 1673.65 413.6 1677.53 412.212C1681.42 410.824 1681.42 408.587 1677.53 407.218C1674.08 406.004 1668.79 405.869 1664.9 406.794L1596.46 382.5H1565.71L1526.08 396.575H1485.49L1566.71 367.731H1610.57L1701.99 400.181H1873.81V398.812H1702.58L1611.17 366.362H1566.12L1565.87 366.459L1454.01 406.177L1424.67 395.766L1551.07 350.88H1640.23L1713.77 376.986H1873.84V375.617H1714.4L1644.71 350.88H1873.84V349.511H1550.51L1550.26 349.607L1422.51 394.975L1389.15 383.137L1565.4 320.551H1873.84V319.182H1649.07L1873.84 239.359V237.778L1644.62 319.182H1567.03L1734.12 259.855V246.782L1814.09 218.401C1817.98 219.403 1823.43 219.288 1826.94 218.054C1830.83 216.666 1830.83 214.429 1826.94 213.06C1823.06 211.672 1816.76 211.672 1812.87 213.06C1809.36 214.313 1809.04 216.241 1811.86 217.63L1768.32 233.093V197.25L1873.87 159.768V158.187L1766.09 196.459V233.883L1731.89 246.03V259.103L1563.42 318.931L1563.99 319.529L1386.93 382.404L1354.73 370.97L1536.62 306.379V200.123L1873.84 80.3692V78.7881L1589.72 179.685V83.6083L1807.29 6.38849C1807.29 6.38849 1807.57 6.52345 1807.73 6.5813C1811.61 7.96952 1817.92 7.96952 1821.8 6.5813C1825.69 5.19307 1825.69 2.95649 1821.8 1.58755H1821.83ZM1516.55 430.008L1255.29 522.788L994.056 430.028L1255.32 337.248L1516.55 430.008Z" fill="url(#paint0_radial_576_4986)"/>
<path opacity="0.1" d="M1873.97 167.827L1827.54 184.312V237.45L1414.99 383.946L1383.64 372.821L1596.43 297.26V283.744L1634.15 270.344V239.282L1707.32 213.311C1710.39 214.101 1714.68 214.005 1717.44 213.022C1720.52 211.942 1720.52 210.168 1717.44 209.088C1714.37 208.009 1709.42 208.009 1706.35 209.088C1703.59 210.072 1703.34 211.595 1705.56 212.694L1632.39 238.684V269.746L1596.43 282.51V232.765L1596 232.611L1575.21 225.226L1699.95 180.938V131.117L1788.57 99.6501C1791.65 100.441 1795.94 100.344 1798.7 99.3609C1801.77 98.2812 1801.77 96.5074 1798.7 95.4276C1795.63 94.3479 1790.68 94.3479 1787.6 95.4276C1784.84 96.411 1784.59 97.9341 1786.82 99.0332L1698.19 130.5V180.321L1573.46 224.609L1370.66 152.595V96.8737C1372.35 96.7966 1374.01 96.5459 1375.33 96.0832C1378.4 95.0035 1378.4 93.2296 1375.33 92.1499C1372.26 91.0702 1367.3 91.0702 1364.23 92.1499C1361.16 93.2296 1361.16 95.0035 1364.23 96.0832C1365.55 96.5459 1367.21 96.7966 1368.9 96.8737V153.212L1369.34 153.367L1491.32 196.691H1402.41L1330.53 171.163C1332.76 170.083 1332.51 168.541 1329.75 167.557C1326.67 166.478 1321.72 166.478 1318.65 167.557C1315.58 168.637 1315.58 170.411 1318.65 171.491C1321.41 172.474 1325.7 172.551 1328.77 171.78L1401.94 197.77H1494.33L1594.71 233.401V296.662L1381.91 372.224L1353.38 362.101L1503.99 308.616C1507.06 309.407 1511.35 309.31 1514.11 308.327C1517.18 307.247 1517.18 305.473 1514.11 304.394C1511.04 303.314 1506.09 303.314 1503.01 304.394C1500.26 305.377 1500 306.9 1502.23 307.999L1351.63 361.484L1324.07 351.709L1504.21 287.735H1553.17C1553.46 288.256 1554.18 288.757 1555.34 289.162C1558.41 290.241 1563.36 290.241 1566.43 289.162C1569.51 288.082 1569.51 286.308 1566.43 285.228C1563.36 284.149 1558.41 284.149 1555.34 285.228C1554.21 285.633 1553.49 286.135 1553.2 286.655H1503.77L1503.58 286.732L1322.35 351.092L1311.22 347.139L1310.78 347.294L1302.66 350.186L1259.49 334.857V313.533L1295.17 300.865V300.923H1351.13L1412.73 279.039C1415.8 279.83 1420.1 279.733 1422.85 278.75C1425.93 277.67 1425.93 275.896 1422.85 274.817C1419.78 273.737 1414.83 273.737 1411.76 274.817C1409 275.8 1408.75 277.323 1410.97 278.422L1350.66 299.843H1298.05L1402.88 262.612C1405.96 263.46 1410.41 263.402 1413.23 262.4C1416.3 261.32 1416.3 259.546 1413.23 258.467C1410.16 257.387 1405.2 257.387 1402.13 258.467C1399.44 259.431 1399.12 260.896 1401.16 261.995L1270.4 308.423V298.166L1348.21 270.536V251.024L1411.54 228.543C1414.61 229.333 1418.9 229.237 1421.66 228.253C1424.73 227.174 1424.73 225.4 1421.66 224.32C1418.59 223.24 1413.64 223.24 1410.57 224.32C1407.81 225.304 1407.56 226.827 1409.78 227.926L1346.46 250.407V269.919L1268.65 297.549V309.06L1257.74 312.935V335.513L1300.91 350.841L1272.53 360.906L1183.72 329.362V293.519L1244.04 272.098C1247.11 272.947 1251.56 272.889 1254.38 271.886C1257.46 270.806 1257.46 269.033 1254.38 267.953C1251.31 266.873 1246.36 266.873 1243.29 267.953C1240.59 268.917 1240.28 270.382 1242.31 271.481L1183.72 292.285V263.325L1230.02 246.898V192.41C1231.72 192.333 1233.38 192.083 1234.7 191.62C1237.77 190.54 1237.77 188.766 1234.7 187.687C1231.62 186.607 1226.67 186.607 1223.6 187.687C1220.53 188.766 1220.53 190.54 1223.6 191.62C1224.91 192.083 1226.58 192.333 1228.27 192.41V246.262L1183.72 262.072V166.015H1181.97V330.018L1270.78 361.561L1238.93 372.86L1122.84 331.637V233.479L1067.04 213.658V176.735L1017.76 159.247C1019.98 158.168 1019.73 156.625 1016.98 155.642C1013.9 154.562 1008.95 154.562 1005.88 155.642C1002.81 156.721 1002.81 158.495 1005.88 159.575C1008.64 160.558 1012.93 160.635 1016 159.864L1065.28 177.352V214.275L1121.09 234.096V332.254L1237.17 373.477L1213.57 381.864L1056.91 326.239V242.483L1056.48 242.329L917.817 193.085C920.043 192.005 919.792 190.463 917.034 189.48C913.961 188.4 909.008 188.4 905.936 189.48C902.864 190.559 902.864 192.333 905.936 193.413C908.695 194.396 912.99 194.473 916.062 193.702L1055.16 243.1V326.856L1055.6 327.01L1211.81 382.481L1173.56 396.074L912.927 303.526V261.841L912.488 261.687L694.297 184.197C696.523 183.117 696.272 181.575 693.513 180.591C690.441 179.511 685.488 179.511 682.416 180.591C679.343 181.671 679.343 183.445 682.416 184.524C685.174 185.508 689.469 185.585 692.541 184.814L911.203 262.458V304.143L911.641 304.297L1057.79 356.201H941.862L807.656 308.539C809.882 307.459 809.631 305.917 806.872 304.933C803.8 303.854 798.847 303.854 795.775 304.933C792.702 306.013 792.702 307.787 795.775 308.867C798.533 309.85 802.828 309.927 805.9 309.156L941.392 357.281H1060.83L1171.84 396.691L1127.39 412.482L1031.99 378.606H878.787L704.548 316.733H607.898L568.492 302.735C570.718 301.656 570.467 300.113 567.709 299.13C564.636 298.05 559.683 298.05 556.611 299.13C553.539 300.21 553.539 301.983 556.611 303.063C559.37 304.047 563.665 304.124 566.737 303.352L607.428 317.794H704.078L835.745 364.55H722.01L667.243 345.096C669.468 343.997 669.218 342.473 666.459 341.49C663.387 340.41 658.433 340.41 655.361 341.49C652.289 342.57 652.289 344.344 655.361 345.423C658.12 346.407 662.415 346.484 665.487 345.713L721.539 365.61H838.786L878.317 379.647H1031.52L1058.23 389.133H993.118L992.93 389.21L960.264 400.817H824.146L785.743 387.186H708.749C708.467 386.665 707.746 386.164 706.586 385.759C703.514 384.679 698.561 384.679 695.488 385.759C692.416 386.839 692.416 388.612 695.488 389.692C698.561 390.772 703.514 390.772 706.586 389.692C707.714 389.287 708.436 388.786 708.749 388.265H785.273L823.675 401.897H957.223L920.451 414.95C917.378 414.16 913.083 414.256 910.325 415.239C907.253 416.319 907.253 418.093 910.325 419.173C913.397 420.252 918.35 420.252 921.422 419.173C924.181 418.189 924.432 416.666 922.206 415.586L993.62 390.232H1061.33L1125.73 413.099L1101.93 421.544L1103.25 422.007L1117.23 426.981H1072.75L1014.56 406.332C1016.79 405.233 1016.54 403.709 1013.78 402.726C1010.71 401.646 1005.75 401.646 1002.68 402.726C999.608 403.806 999.608 405.58 1002.68 406.659C1005.44 407.643 1009.73 407.72 1012.81 406.949L1072.28 428.061H1120.3L1152.87 439.63L1132.84 446.744H1097.32L1097.14 446.821L1066.1 457.831H1042.81L990.171 439.148C992.523 438.049 992.334 436.487 989.513 435.484C986.441 434.404 981.488 434.404 978.415 435.484C975.343 436.564 975.343 438.338 978.415 439.417C981.111 440.382 985.312 440.478 988.385 439.745L1042.34 458.891H1066.57L1066.76 458.814L1097.79 447.805H1129.8L1065.79 470.537H1031.24L959.198 444.951H741.948L607.177 397.096C609.497 395.997 609.309 394.455 606.488 393.452C603.415 392.372 598.462 392.372 595.39 393.452C592.318 394.532 592.318 396.306 595.39 397.385C598.117 398.349 602.318 398.446 605.39 397.713L741.446 446.031H958.697L1030.74 471.617H1066.26L1066.44 471.539L1154.6 440.227L1177.73 448.441L1078.11 483.821H1007.85L949.888 463.229H801.104C800.822 462.709 800.101 462.207 798.941 461.803C795.869 460.723 790.915 460.723 787.843 461.803C784.771 462.882 784.771 464.656 787.843 465.736C790.915 466.816 795.869 466.816 798.941 465.736C800.069 465.331 800.79 464.83 801.073 464.309H949.386L1004.31 483.802H794.677L794.489 483.879L594.7 554.813C591.628 554.023 587.333 554.119 584.575 555.103C581.502 556.182 581.502 557.956 584.575 559.036C587.647 560.116 592.6 560.116 595.672 559.036C598.431 558.053 598.682 556.529 596.456 555.45L795.148 484.901H1078.58L1078.76 484.824L1179.46 449.058L1205.73 458.39L1066.82 507.71H822.233L822.045 507.787L607.867 583.85H358.076L212.521 532.178C214.747 531.098 214.496 529.556 211.738 528.591C208.666 527.512 203.712 527.512 200.64 528.591C197.568 529.671 197.568 531.445 200.64 532.525C203.399 533.508 207.694 533.585 210.766 532.814L357.606 584.949H608.118L608.337 584.872L822.516 508.809H1000.67L739.064 601.705V626.153L634.702 663.21C631.63 662.42 627.335 662.516 624.576 663.5C621.504 664.579 621.504 666.353 624.576 667.433C627.648 668.513 632.602 668.513 635.674 667.433C638.433 666.45 638.683 664.926 636.458 663.827L740.819 626.77V602.321L1004.22 508.79H1065.38L933.68 555.565V565.881L870.668 588.266C867.596 587.475 863.301 587.572 860.542 588.555C857.47 589.635 857.47 591.409 860.542 592.488C863.614 593.568 868.568 593.568 871.64 592.488C874.398 591.505 874.649 589.982 872.424 588.883L906.751 576.697V604.944L708.498 675.338C705.426 674.548 701.131 674.644 698.372 675.627C695.3 676.707 695.3 678.481 698.372 679.561C701.445 680.64 706.398 680.64 709.47 679.561C712.229 678.577 712.48 677.054 710.254 675.955L908.507 605.561V576.061L935.467 566.498V556.182L1068.26 509.041L1067.82 508.578L1207.39 459.026L1232.75 468.03L1089.39 518.932V602.688L825.713 696.316H829.224L1047.54 618.807V694.561L1042.56 696.335H1046.07L1049.26 695.197V618.19L1091.12 603.324V519.568L1234.48 468.667L1256.8 476.591L1146.26 515.847V561.755L1146.7 561.909L1272.38 606.544V622.123L1201.28 647.362C1198.21 646.571 1193.91 646.667 1191.15 647.651C1188.08 648.731 1188.08 650.504 1191.15 651.584C1194.22 652.664 1199.18 652.664 1202.25 651.584C1205.01 650.601 1205.26 649.078 1203.03 647.979L1274.1 622.74V605.927L1273.66 605.773L1147.98 561.138V516.464L1231.5 486.81V505.936L1193.19 519.53C1190.12 518.739 1185.82 518.835 1183.06 519.819C1179.99 520.898 1179.99 522.672 1183.06 523.752C1186.14 524.832 1191.09 524.832 1194.16 523.752C1196.92 522.769 1197.17 521.245 1194.94 520.166L1233.22 506.573V486.193L1258.49 477.227L1288.37 487.832V521.149L1232.03 541.163V564.203L1232.47 564.358L1351.1 606.486C1348.87 607.566 1349.12 609.108 1351.88 610.092C1354.95 611.171 1359.9 611.171 1362.98 610.092C1366.05 609.012 1366.05 607.238 1362.98 606.158C1360.22 605.175 1355.92 605.098 1352.85 605.869L1233.79 563.586V541.799L1288.37 522.422V545.385L1361.38 571.318C1359.15 572.417 1359.4 573.94 1362.16 574.904C1365.23 575.984 1370.19 575.984 1373.26 574.904C1376.33 573.824 1376.33 572.051 1373.26 570.971C1370.5 569.987 1366.21 569.91 1363.13 570.682L1290.12 544.749V488.468L1311.09 495.91L1311.53 495.756L1345.67 483.629L1376.99 494.754V521.766L1460.22 551.324V576.794C1458.53 576.871 1456.87 577.121 1455.55 577.584C1452.48 578.664 1452.48 580.438 1455.55 581.517C1458.62 582.597 1463.58 582.597 1466.65 581.517C1469.72 580.438 1469.72 578.664 1466.65 577.584C1465.33 577.121 1463.67 576.871 1461.98 576.794V550.707L1378.75 521.149V495.371L1513.48 543.206V593.915L1440.41 619.867H1373.35L1373.17 619.944L1258.11 660.8C1255.04 660.01 1250.75 660.106 1247.99 661.09C1244.92 662.169 1244.92 663.943 1247.99 665.023C1251.06 666.103 1256.01 666.103 1259.09 665.023C1261.84 664.04 1262.09 662.516 1259.87 661.437L1373.86 620.966H1437.4L1226.04 696.026C1222.97 695.236 1218.68 695.332 1215.92 696.316C1215.89 696.316 1215.85 696.354 1215.82 696.354H1228.65L1515.3 594.571V542.609L1514.86 542.454L1347.52 483.031L1381.19 471.077L1666.91 572.533V633.074L1764.5 667.741C1762.27 668.821 1762.52 670.364 1765.28 671.328C1768.35 672.407 1773.31 672.407 1776.38 671.328C1779.45 670.248 1779.45 668.474 1776.38 667.394C1773.62 666.411 1769.33 666.334 1766.25 667.105L1668.63 632.438V571.896L1668.19 571.742L1382.92 470.44L1414.99 459.045L1697.57 559.383H1866.07L1873.97 562.198V560.945L1866.54 558.303H1698.04L1459.5 473.602H1507.47L1588.88 502.504H1651.58L1651.77 502.427L1738.73 471.539C1741.8 472.33 1746.1 472.234 1748.86 471.25C1751.93 470.17 1751.93 468.397 1748.86 467.317C1745.78 466.237 1740.83 466.237 1737.76 467.317C1735 468.3 1734.75 469.823 1736.97 470.922L1651.08 501.425H1589.32L1507.9 472.523H1456.43L1416.71 458.428L1502.29 428.042L1526.62 436.68V459.373L1588.44 481.334C1586.22 482.414 1586.47 483.956 1589.22 484.92C1592.3 486 1597.25 486 1600.32 484.92C1603.39 483.841 1603.39 482.067 1600.32 480.987C1597.56 480.004 1593.27 479.927 1590.2 480.698L1528.38 458.737V437.297L1594.3 460.704H1625.53L1625.72 460.626L1662.96 447.4C1666.03 448.19 1670.33 448.094 1673.08 447.111C1676.16 446.031 1676.16 444.257 1673.08 443.177C1670.01 442.098 1665.06 442.098 1661.99 443.177C1659.23 444.161 1658.98 445.684 1661.2 446.783L1625.06 459.624H1594.77L1504.02 427.406L1520.51 421.544L1519.19 421.081L1467.9 402.861L1492.54 394.107H1529.79L1556.43 403.574C1554.3 404.654 1554.58 406.158 1557.31 407.122C1560.38 408.202 1565.34 408.202 1568.41 407.122C1571.48 406.042 1571.48 404.268 1568.41 403.189C1565.62 402.186 1561.23 402.128 1558.16 402.938L1530.23 393.028H1495.55L1558.38 370.72L1706.19 423.202H1812.56L1812.74 423.125L1872.62 401.858C1873 401.955 1873.44 401.993 1873.88 402.07V397.096C1873.09 397.231 1872.34 397.404 1871.68 397.636C1868.92 398.619 1868.67 400.142 1870.9 401.222L1812.09 422.103H1706.66L1592.67 381.613H1641.45L1689.13 398.542C1686.91 399.622 1687.16 401.164 1689.92 402.148C1692.99 403.227 1697.94 403.227 1701.02 402.148C1704.09 401.068 1704.09 399.294 1701.02 398.214C1698.26 397.231 1693.96 397.154 1690.89 397.925L1641.89 380.534H1589.6L1560.1 370.064L1635.15 343.418H1873.84V342.338H1638.19L1667.97 331.772H1845.5L1845.69 331.695L1873.84 321.708V320.455L1845.03 330.693H1667.5L1667.32 330.77L1466.12 402.205L1443.8 394.281L1655.31 319.163H1810.02L1810.21 319.086L1873.88 296.469V295.216L1809.52 318.064H1654.81L1654.62 318.141L1442.01 393.645L1416.65 384.641L1829.2 238.145V185.007L1873.88 169.138V167.885L1873.97 167.827ZM1517.06 421.428L1311.13 494.541L1105.22 421.428L1311.16 348.315L1517.06 421.428Z" fill="#42E8E0"/>
</g>
</mask>
<g mask="url(#mask0_576_4986)">
<rect x="11.002" y="43" width="1804" height="706" fill="#C4C4C4"/>
</g>
<defs>
<radialGradient id="paint0_radial_576_4986" cx="0" cy="0" r="1" gradientUnits="userSpaceOnUse" gradientTransform="translate(1914.72 105.454) rotate(-180) scale(1377.3 847.085)">
<stop stop-color="#FF2C9C"/>
<stop offset="0.03" stop-color="#F52E9F"/>
<stop offset="0.2" stop-color="#C53EB0"/>
<stop offset="0.37" stop-color="#9D4ABE"/>
<stop offset="0.54" stop-color="#7E54C8"/>
<stop offset="0.7" stop-color="#685BD0"/>
<stop offset="0.86" stop-color="#5B5FD5"/>
<stop offset="1" stop-color="#5761D7"/>
</radialGradient>
</defs>
</svg>
