<svg width="281" height="284" viewBox="0 0 281 284" fill="none" xmlns="http://www.w3.org/2000/svg">
<path d="M205.392 263.477C204.662 263.516 203.932 263.573 203.222 263.573C189.755 263.573 176.289 263.535 162.822 263.611C161.118 263.611 160.428 263.152 160.003 261.619C158.846 257.326 157.508 253.092 156.129 248.473C155.459 249.029 154.932 249.432 154.486 249.872C144.832 259.357 133.211 265.585 119.318 266.927C93.4793 269.437 62.8542 258.304 52.5715 229.886C49.6712 221.896 49.0019 213.618 50.1174 205.397C52.9974 183.917 56.4047 162.513 59.4064 141.051C60.968 129.803 63.706 118.938 69.5065 108.936C79.5864 91.5176 95.2032 80.4228 114.836 74.2334C141.932 65.6872 169.17 66.4345 196.388 73.8694C207.603 76.9353 218.433 80.9785 228.899 85.9031C230.582 86.6887 231.028 87.5893 230.785 89.2756C227.013 115.048 223.321 140.821 219.59 166.594C216.243 189.627 212.876 212.679 209.53 235.712C208.232 244.66 206.954 253.59 205.656 262.538C205.616 262.826 205.514 263.113 205.413 263.496L205.392 263.477ZM127.613 220.056C129.925 220.056 131.608 220.095 133.312 220.056C141.709 219.788 149.618 217.833 156.981 214.001C157.772 213.579 158.705 212.698 158.826 211.912C161.199 196.544 163.45 181.177 165.722 165.809C167.892 151.188 170.022 136.567 172.232 121.966C172.841 117.942 173.023 117.731 169.068 116.371C153.918 111.216 139.295 112.289 125.625 120.548C119.582 124.208 115.789 129.631 114.673 136.433C113.193 145.574 111.956 154.752 110.577 163.912C108.853 175.428 107.088 186.925 105.384 198.422C104.391 205.072 106.378 210.705 112.179 214.863C116.904 218.255 122.32 219.845 127.613 220.056V220.056Z" fill="black"/>
<path d="M233.906 28.3789L249.118 35.2198L225.165 88.241L219.02 101.865L219.04 101.846L209.163 123.729L196.629 118.44L153.693 100.371L145.581 117.291L103.659 204.803L45.9376 179.989L0 277.102L15.0489 284L54.4761 202.676L110.696 226.361L155.863 133.885L155.924 133.981L161.785 121.736L204.985 139.519V139.499L216.383 144.194L218.411 139.959H218.432L225.266 125.569L264.775 42.7504L281 49.0739L276.863 0L233.906 28.3789Z" fill="url(#paint0_linear_1122_1810)"/>
<path d="M149.738 113.247C149.738 113.247 164.848 113.036 173.163 118.133L223.096 142.009L227.518 112.289L153.389 78.104L149.738 113.247V113.247Z" fill="black"/>
<path d="M142.049 114.128C142.049 114.128 155.11 111.005 171.477 117.194L173.161 118.114L159.045 213.33H213.054L231.206 86.7075C231.206 86.7075 207.213 75.8426 194.618 73.4282L142.049 114.128Z" fill="black"/>
<defs>
<linearGradient id="paint0_linear_1122_1810" x1="281" y1="6.4755e-05" x2="11.9798" y2="305.552" gradientUnits="userSpaceOnUse">
<stop offset="0.286458" stop-color="#1D123D"/>
<stop offset="1" stop-color="#FF00F5"/>
</linearGradient>
</defs>
</svg>
