<svg width="20" height="16" viewBox="0 0 20 16" fill="none" xmlns="http://www.w3.org/2000/svg">
<path d="M0.400391 7.79994C0.400391 7.35811 0.758563 6.99994 1.20039 6.99994H18.4004C18.8422 6.99994 19.2004 7.35811 19.2004 7.79994C19.2004 8.24177 18.8422 8.59994 18.4004 8.59994H1.20039C0.758563 8.59994 0.400391 8.24177 0.400391 7.79994Z" fill="#A0A0A0"/>
<path d="M12.4004 6.8C12.4004 6.35817 12.0422 6 11.6004 6H9.20039C8.75856 6 8.40039 6.35817 8.40039 6.8V8.2C8.40039 8.64183 8.75856 9 9.20039 9H11.6004C12.0422 9 12.4004 8.64183 12.4004 8.2V6.8Z" fill="#A0A0A0"/>
<path d="M0.400391 14.8C0.400391 14.3582 0.758563 14 1.20039 14H18.4004C18.8422 14 19.2004 14.3582 19.2004 14.8C19.2004 15.2419 18.8422 15.6 18.4004 15.6H1.20039C0.758563 15.6 0.400391 15.2419 0.400391 14.8Z" fill="#A0A0A0"/>
<path d="M17.5004 13.8C17.5004 13.3582 17.1422 13 16.7004 13H14.3004C13.8586 13 13.5004 13.3582 13.5004 13.8V15.2C13.5004 15.6418 13.8586 16 14.3004 16H16.7004C17.1422 16 17.5004 15.6418 17.5004 15.2V13.8Z" fill="#A0A0A0"/>
<path d="M0.400391 1.80001C0.400391 1.35818 0.758563 1.00001 1.20039 1.00001H18.4004C18.8422 1.00001 19.2004 1.35818 19.2004 1.80001C19.2004 2.24184 18.8422 2.60001 18.4004 2.60001H1.20039C0.758563 2.60001 0.400391 2.24184 0.400391 1.80001Z" fill="#A0A0A0"/>
<path d="M6.00039 0.8C6.00039 0.358172 5.64222 0 5.20039 0H2.80039C2.35856 0 2.00039 0.358172 2.00039 0.8V2.2C2.00039 2.64183 2.35856 3 2.80039 3H5.20039C5.64222 3 6.00039 2.64183 6.00039 2.2V0.8Z" fill="#A0A0A0"/>
</svg>
