<svg width="34" height="34" viewBox="0 0 34 34" fill="none" xmlns="http://www.w3.org/2000/svg">
<g clip-path="url(#clip0_651_2420)">
<path d="M31.6712 27.7919C28.058 26.1602 27.9206 19.1563 27.9179 18.9796V14.2808C27.9179 9.75846 25.1545 5.86973 21.2275 4.21395C21.2191 1.88889 19.3254 0 16.9986 0C14.6718 0 12.7782 1.889 12.7697 4.21384C8.84288 5.86962 6.07938 9.75835 6.07938 14.2807V18.9795C6.07682 19.1562 5.93927 26.1601 2.32598 27.7918C1.91437 27.9778 1.68815 28.4258 1.78332 28.8674C1.87837 29.309 2.26887 29.6244 2.7206 29.6244H11.8806C12.0684 30.6574 12.5568 31.6184 13.3039 32.3968C14.2961 33.4306 15.6083 33.9999 16.9985 33.9999C18.3887 33.9999 19.7009 33.4306 20.693 32.3968C21.4402 31.6183 21.9286 30.6573 22.1163 29.6244H31.2763C31.728 29.6244 32.1185 29.309 32.2136 28.8674C32.3089 28.4258 32.0828 27.9778 31.6712 27.7919ZM26.9116 24.4367C27.2914 25.5882 27.8292 26.7447 28.5919 27.707H5.40521C6.16777 26.7448 6.7056 25.5884 7.08544 24.4367H26.9116ZM16.9986 1.9175C18.0511 1.9175 18.941 2.62473 19.2195 3.58873C18.5021 3.43995 17.7593 3.36151 16.9986 3.36151C16.2379 3.36151 15.4951 3.43989 14.7778 3.58873C15.0563 2.62478 15.9462 1.9175 16.9986 1.9175ZM7.99688 18.9854V14.2806C7.99688 9.31713 12.035 5.27901 16.9986 5.27901C21.9622 5.27901 26.0004 9.31713 26.0004 14.2806V18.9932C26.0016 19.1374 26.0241 20.6531 26.4061 22.519H7.59094C7.97316 20.6514 7.99572 19.133 7.99688 18.9854ZM16.9986 32.0826C15.5352 32.0826 14.2581 31.0274 13.8481 29.6244H20.149C19.7391 31.0274 18.4621 32.0826 16.9986 32.0826Z" fill="#170C2E"/>
<path d="M16.9985 6.62427C12.8735 6.62427 9.51758 9.98011 9.51758 14.1051C9.51758 14.6346 9.94686 15.0638 10.4764 15.0638C11.0059 15.0638 11.4351 14.6346 11.4351 14.1051C11.4351 11.0374 13.9309 8.54177 16.9986 8.54177C17.5281 8.54177 17.9574 8.11249 17.9574 7.58299C17.9573 7.05344 17.528 6.62427 16.9985 6.62427Z" fill="#170C2E"/>
</g>
<defs>
<clipPath id="clip0_651_2420">
<rect width="34" height="34" fill="white"/>
</clipPath>
</defs>
</svg>
