<svg width="22" height="20" viewBox="0 0 22 20" fill="none" xmlns="http://www.w3.org/2000/svg">
<path d="M20.1496 7.31637L4.8526 0.314359C4.24891 0.0392893 3.56723 -0.0586374 2.90052 0.0339303C2.23381 0.126498 1.61451 0.405055 1.12705 0.831623C0.639593 1.25819 0.307702 1.81201 0.176628 2.41757C0.0455549 3.02313 0.121678 3.65097 0.394619 4.21548L3.01696 9.58702C3.07646 9.71689 3.10711 9.85631 3.10711 9.99714C3.10711 10.138 3.07646 10.2774 3.01696 10.4073L0.394619 15.7788C0.172484 16.2356 0.0785778 16.7361 0.121433 17.2346C0.164288 17.7331 0.342546 18.2139 0.640006 18.6333C0.937467 19.0527 1.3447 19.3974 1.82469 19.6361C2.30469 19.8748 2.84223 19.9999 3.38846 20C3.90007 19.9953 4.40406 19.886 4.86353 19.6799L20.1605 12.6779C20.7031 12.428 21.1592 12.045 21.4779 11.5717C21.7966 11.0983 21.9654 10.5532 21.9654 9.99714C21.9654 9.44108 21.7966 8.89597 21.4779 8.4226C21.1592 7.94924 20.7031 7.56625 20.1605 7.31637H20.1496ZM19.1772 10.8874L3.88015 17.8894C3.67928 17.9777 3.45373 18.0077 3.23373 17.9753C3.01373 17.9429 2.80981 17.8497 2.6493 17.7082C2.4888 17.5667 2.37938 17.3837 2.33573 17.1836C2.29208 16.9836 2.31628 16.7761 2.40508 16.589L5.0165 11.2175C5.0503 11.1458 5.07949 11.0723 5.10391 10.9974H12.6322C12.922 10.9974 13.1999 10.892 13.4048 10.7044C13.6097 10.5169 13.7249 10.2624 13.7249 9.99714C13.7249 9.73184 13.6097 9.47742 13.4048 9.28983C13.1999 9.10223 12.922 8.99685 12.6322 8.99685H5.10391C5.07949 8.92199 5.0503 8.84851 5.0165 8.77678L2.40508 3.40524C2.31628 3.21815 2.29208 3.01068 2.33573 2.81064C2.37938 2.61061 2.4888 2.42757 2.6493 2.28607C2.80981 2.14458 3.01373 2.05139 3.23373 2.019C3.45373 1.98661 3.67928 2.01658 3.88015 2.10487L19.1772 9.10688C19.3561 9.19082 19.5063 9.31835 19.6112 9.47543C19.7161 9.63251 19.7716 9.81304 19.7716 9.99714C19.7716 10.1812 19.7161 10.3618 19.6112 10.5188C19.5063 10.6759 19.3561 10.8034 19.1772 10.8874Z" fill="#FDFDFE"/>
</svg>
